<svg width="60" height="60" viewBox="0 0 60 60" fill="none" xmlns="http://www.w3.org/2000/svg">
<circle cx="30" cy="30" r="28" fill="#B0DFCB"/>
<path d="M27.567 34.1882V17H32.1742V34.1882H27.567ZM29.8706 43.0126C29.3272 43.0126 28.837 42.8945 28.3999 42.6583C27.9628 42.422 27.6202 42.0912 27.3721 41.6659C27.124 41.2407 27 40.7681 27 40.2484C27 39.7286 27.124 39.2561 27.3721 38.8308C27.6202 38.4055 27.9628 38.0747 28.3999 37.8385C28.837 37.6022 29.3272 37.4841 29.8706 37.4841C30.414 37.4841 30.9043 37.6022 31.3413 37.8385C31.7784 38.0747 32.121 38.4055 32.3691 38.8308C32.6172 39.2561 32.7412 39.7286 32.7412 40.2484C32.7412 40.7681 32.6172 41.2407 32.3691 41.6659C32.121 42.0912 31.7784 42.422 31.3413 42.6583C30.9043 42.8945 30.414 43.0126 29.8706 43.0126Z" fill="#009857"/>
</svg>
