<svg width="55" height="28" viewBox="0 0 55 28" fill="none" xmlns="http://www.w3.org/2000/svg">
<path d="M18 5.25C17.5858 5.25 17.25 5.58579 17.25 6C17.25 6.41421 17.5858 6.75 18 6.75L18 5.25ZM54.5303 6.53033C54.8232 6.23744 54.8232 5.76257 54.5303 5.46967L49.7574 0.696702C49.4645 0.403808 48.9896 0.403808 48.6967 0.696702C48.4038 0.989595 48.4038 1.46447 48.6967 1.75736L52.9393 6L48.6967 10.2426C48.4038 10.5355 48.4038 11.0104 48.6967 11.3033C48.9896 11.5962 49.4645 11.5962 49.7574 11.3033L54.5303 6.53033ZM18 6.75L54 6.75L54 5.25L18 5.25L18 6.75Z" fill="#CBCCCD"/>
<path d="M37 22.75C37.4142 22.75 37.75 22.4142 37.75 22C37.75 21.5858 37.4142 21.25 37 21.25V22.75ZM0.469669 21.4697C0.176777 21.7626 0.176777 22.2374 0.469669 22.5303L5.24264 27.3033C5.53553 27.5962 6.01041 27.5962 6.3033 27.3033C6.59619 27.0104 6.59619 26.5355 6.3033 26.2426L2.06066 22L6.3033 17.7574C6.59619 17.4645 6.59619 16.9896 6.3033 16.6967C6.01041 16.4038 5.53553 16.4038 5.24264 16.6967L0.469669 21.4697ZM37 21.25L1 21.25V22.75L37 22.75V21.25Z" fill="#CBCCCD"/>
</svg>
