<svg width="36" height="36" viewBox="0 0 36 36" fill="none" xmlns="http://www.w3.org/2000/svg">
<path d="M12 9C12 7.34315 13.3431 6 15 6H21C22.6569 6 24 7.34315 24 9H12Z" fill="#CBCCCD"/>
<path fill-rule="evenodd" clip-rule="evenodd" d="M9 9C6.51472 9 4.5 11.0147 4.5 13.5V25.5C4.5 27.9853 6.51472 30 9 30H27C29.4853 30 31.5 27.9853 31.5 25.5V13.5C31.5 11.0147 29.4853 9 27 9H9ZM18 27C22.1421 27 25.5 23.6421 25.5 19.5C25.5 15.3579 22.1421 12 18 12C13.8579 12 10.5 15.3579 10.5 19.5C10.5 23.6421 13.8579 27 18 27Z" fill="#CBCCCD"/>
<circle cx="18" cy="19.5" r="6" fill="#CBCCCD"/>
</svg>
