<svg width="24" height="24" viewBox="0 0 24 24" fill="none" xmlns="http://www.w3.org/2000/svg">
<path fill-rule="evenodd" clip-rule="evenodd" d="M12 22C17.5228 22 22 17.5228 22 12C22 6.47715 17.5228 2 12 2C6.47715 2 2 6.47715 2 12C2 17.5228 6.47715 22 12 22ZM17.5713 11.5713C18.4392 10.7035 18.4392 9.29648 17.5713 8.42865C16.7035 7.56082 15.2965 7.56082 14.4287 8.42865L11.0769 11.7804L9.57135 10.2748C8.70352 9.40697 7.29648 9.40697 6.42865 10.2748C5.56082 11.1426 5.56082 12.5497 6.42865 13.4175L9.50557 16.4944C10.3734 17.3623 11.7804 17.3623 12.6483 16.4944L17.5713 11.5713Z" fill="#B0DFCB"/>
<path d="M8 11.9233L11.0769 15.0002L16 10.0771" stroke="#009857" stroke-width="1.84615" stroke-linecap="round" stroke-linejoin="round"/>
</svg>
