<svg width="24" height="24" viewBox="0 0 24 24" fill="none" xmlns="http://www.w3.org/2000/svg">
<g id="Icon">
<path id="Subtract" fill-rule="evenodd" clip-rule="evenodd" d="M3 14.3962C3.21069 15.1881 3.52594 15.9484 3.93743 16.6571L6.42485 16.9484C6.6234 17.1721 6.83509 17.3837 7.0588 17.5822L7.33808 20.0683C8.04761 20.4773 8.8083 20.7902 9.6002 20.9991L11.5551 19.4382C11.854 19.4559 12.1537 19.4559 12.4525 19.4382L14.4075 21C15.1995 20.7893 15.9599 20.4741 16.6687 20.0627L16.9479 17.5776C17.1716 17.3791 17.3833 17.1674 17.5819 16.9437L20.0684 16.6645C20.4774 15.9551 20.7904 15.1945 20.9993 14.4028L19.4381 12.4482C19.4558 12.1493 19.4558 11.8497 19.4381 11.5509L21.0002 9.59631C20.7895 8.80443 20.4743 8.04414 20.0628 7.33549L17.5772 7.05626C17.3787 6.83259 17.167 6.62093 16.9433 6.42241L16.664 3.93635C15.9547 3.52578 15.194 3.21123 14.4019 3.00093L12.4469 4.56182C12.1481 4.54413 11.8484 4.54413 11.5495 4.56182L9.59462 3C8.80394 3.20854 8.04449 3.52122 7.33621 3.92983L7.05694 6.41496C6.83323 6.61349 6.62154 6.82515 6.42298 7.04881L3.9365 7.32804C3.52587 8.03722 3.21126 8.79779 3.00093 9.58979L4.56208 11.5444C4.54439 11.8432 4.54439 12.1428 4.56208 12.4416L3 14.3962ZM15.7199 11.995C15.7199 14.0512 14.0527 15.718 11.9962 15.718C9.93966 15.718 8.27251 14.0512 8.27251 11.995C8.27251 9.9388 9.93966 8.27193 11.9962 8.27193C14.0527 8.27193 15.7199 9.9388 15.7199 11.995Z" fill="#CBCCCD"/>
</g>
</svg>
