<svg width="18" height="18" viewBox="0 0 18 18" fill="none" xmlns="http://www.w3.org/2000/svg">
<path fill-rule="evenodd" clip-rule="evenodd" d="M1 0.450195C0.447715 0.450195 0 0.897911 0 1.4502V13.4502C0 14.0025 0.447715 14.4502 1 14.4502H12C12.5523 14.4502 13 14.0025 13 13.4502V9.12402H11.5C10.6716 9.12402 10 8.45245 10 7.62402C10 6.7956 10.6716 6.12402 11.5 6.12402H13V1.4502C13 0.897911 12.5523 0.450195 12 0.450195H1Z" fill="#8E9092"/>
<path d="M0 1.45003C0 0.749895 0.700943 0.266497 1.35538 0.515311L7.35538 2.79649C7.74346 2.94404 8 3.31604 8 3.73122V15.6512C8 16.3428 7.31485 16.8256 6.66359 16.593L0.663592 14.4496C0.265636 14.3074 0 13.9305 0 13.5079V1.45003Z" fill="#CBCCCD"/>
<path d="M11.5 7.62402H17M17 7.62402L14.9583 5.62402M17 7.62402L14.9583 9.62402" stroke="#CBCCCD" stroke-width="1.5" stroke-linecap="round" stroke-linejoin="round"/>
</svg>
