<svg width="80" height="75" viewBox="0 0 80 75" fill="none" xmlns="http://www.w3.org/2000/svg">
<path d="M28.1127 1.29098C26.2296 0.962239 24.4212 2.31049 24.0735 4.30238L14.6288 58.402C14.281 60.3939 15.5257 62.2752 17.4087 62.6039L65.1427 70.9373C67.0258 71.266 68.8342 69.9178 69.182 67.9259L73.7963 41.4949L78.6266 13.8263C78.9744 11.8344 77.7298 9.95312 75.8467 9.62437L28.1127 1.29098Z" fill="#8E9092"/>
<path d="M3.66667 12.6662C1.64162 12.6662 0 14.3078 0 16.3329V71.3329C0 73.3579 1.64162 74.9995 3.66667 74.9995H55C57.025 74.9995 58.6667 73.3579 58.6667 71.3329V44.462V16.3329C58.6667 14.3078 57.025 12.6662 55 12.6662H3.66667Z" fill="#CBCCCD"/>
<path d="M18.3008 30.9993H40.3008M18.3008 40.1659H40.3008" stroke="#8E9092" stroke-width="5.5" stroke-linecap="round"/>
</svg>
