<svg width="18" height="17" viewBox="0 0 18 17" fill="currentColor" xmlns="http://www.w3.org/2000/svg">
<circle cx="14.5391" cy="7.96973" r="2.52344" fill="#8E9092"/>
<path d="M14.9375 13.6804L14.9375 2.25711C14.9375 1.24446 13.8496 0.604364 12.9644 1.09615L5.375 5.3125L5.375 10.625L12.9644 14.8413C13.8496 15.3331 14.9375 14.693 14.9375 13.6804Z" fill="#CBCCCD"/>
<path d="M-0.000732422 7.43848C-0.000732422 6.26487 0.950662 5.31348 2.12427 5.31348H5.37501V10.626H2.12427C0.950661 10.626 -0.000732422 9.67458 -0.000732422 8.50098V7.43848Z" fill="#8E9092"/>
<path d="M2.125 10.625H5.31244L5.6392 15.853C5.67805 16.4746 5.18443 17 4.56169 17C4.06629 17 3.63446 16.6628 3.51431 16.1822L2.125 10.625Z" fill="#CBCCCD"/>
</svg>
