<svg width="34" height="34" viewBox="0 0 34 34" fill="none" xmlns="http://www.w3.org/2000/svg">
<rect x="10.75" y="10.75" width="12.5" height="12.5" rx="1.25" stroke="#797B7D" stroke-width="1.5" stroke-linejoin="round"/>
<mask id="path-2-inside-1_2125_6478" fill="white">
<path fill-rule="evenodd" clip-rule="evenodd" d="M17.9999 5.79979C17.6666 5.99224 17.6666 6.47336 17.9999 6.66581L20.9999 8.39786C21.3333 8.59031 21.7499 8.34975 21.7499 7.96485V6.9828H22.2499C24.5971 6.9828 26.4999 8.88559 26.4999 11.2328V12.7328C26.4999 13.147 26.8357 13.4828 27.2499 13.4828C27.6642 13.4828 27.9999 13.147 27.9999 12.7328V11.2328C27.9999 8.05716 25.4256 5.4828 22.2499 5.4828H21.7499V4.50075C21.7499 4.11585 21.3333 3.87528 20.9999 4.06773L17.9999 5.79979Z"/>
</mask>
<path fill-rule="evenodd" clip-rule="evenodd" d="M17.9999 5.79979C17.6666 5.99224 17.6666 6.47336 17.9999 6.66581L20.9999 8.39786C21.3333 8.59031 21.7499 8.34975 21.7499 7.96485V6.9828H22.2499C24.5971 6.9828 26.4999 8.88559 26.4999 11.2328V12.7328C26.4999 13.147 26.8357 13.4828 27.2499 13.4828C27.6642 13.4828 27.9999 13.147 27.9999 12.7328V11.2328C27.9999 8.05716 25.4256 5.4828 22.2499 5.4828H21.7499V4.50075C21.7499 4.11585 21.3333 3.87528 20.9999 4.06773L17.9999 5.79979Z" fill="#797B7D"/>
<path d="M17.9999 6.66581L17.4999 7.53184L17.9999 6.66581ZM17.9999 5.79979L18.4999 6.66581L18.4999 6.66581L17.9999 5.79979ZM20.9999 8.39786L21.4999 7.53184L21.4999 7.53184L20.9999 8.39786ZM21.7499 6.9828V5.9828H20.7499V6.9828H21.7499ZM21.7499 5.4828H20.7499V6.4828H21.7499V5.4828ZM20.9999 4.06773L20.4999 3.20171L20.4999 3.20171L20.9999 4.06773ZM18.4999 5.79979C18.8333 5.99224 18.8333 6.47336 18.4999 6.66581L17.4999 4.93376C16.4999 5.51111 16.4999 6.95449 17.4999 7.53184L18.4999 5.79979ZM21.4999 7.53184L18.4999 5.79979L17.4999 7.53184L20.4999 9.26389L21.4999 7.53184ZM20.7499 7.96485C20.7499 7.57995 21.1666 7.33939 21.4999 7.53184L20.4999 9.26389C21.4999 9.84124 22.7499 9.11955 22.7499 7.96485H20.7499ZM20.7499 6.9828V7.96485H22.7499V6.9828H20.7499ZM22.2499 5.9828H21.7499V7.9828H22.2499V5.9828ZM27.4999 11.2328C27.4999 8.3333 25.1494 5.9828 22.2499 5.9828V7.9828C24.0449 7.9828 25.4999 9.43787 25.4999 11.2328H27.4999ZM27.4999 12.7328V11.2328H25.4999V12.7328H27.4999ZM27.2499 12.4828C27.388 12.4828 27.4999 12.5947 27.4999 12.7328H25.4999C25.4999 13.6993 26.2834 14.4828 27.2499 14.4828V12.4828ZM26.9999 12.7328C26.9999 12.5947 27.1119 12.4828 27.2499 12.4828V14.4828C28.2164 14.4828 28.9999 13.6993 28.9999 12.7328H26.9999ZM26.9999 11.2328V12.7328H28.9999V11.2328H26.9999ZM22.2499 6.4828C24.8733 6.4828 26.9999 8.60945 26.9999 11.2328H28.9999C28.9999 7.50488 25.9779 4.4828 22.2499 4.4828V6.4828ZM21.7499 6.4828H22.2499V4.4828H21.7499V6.4828ZM20.7499 4.50075V5.4828H22.7499V4.50075H20.7499ZM21.4999 4.93376C21.1666 5.12621 20.7499 4.88565 20.7499 4.50075H22.7499C22.7499 3.34605 21.4999 2.62436 20.4999 3.20171L21.4999 4.93376ZM18.4999 6.66581L21.4999 4.93376L20.4999 3.20171L17.4999 4.93376L18.4999 6.66581Z" fill="#797B7D" mask="url(#path-2-inside-1_2125_6478)"/>
</svg>
