<svg width="26" height="24" viewBox="0 0 26 24" fill="none" xmlns="http://www.w3.org/2000/svg">
<path d="M1.5 12.0312C1.5 18.2617 6.55079 23.3125 12.7812 23.3125C19.0117 23.3125 24.0625 18.2617 24.0625 12.0312C24.0625 5.80079 19.0117 0.75 12.7812 0.75C6.55079 0.75 1.5 5.80079 1.5 12.0312Z" fill="white"/>
<path d="M9.86328 16.5L9.85059 15.6621L12.9863 12.3613C14.0781 11.2061 14.5986 10.584 14.5986 9.7334C14.5986 8.79395 13.7988 8.17188 12.7705 8.17188C11.6787 8.17188 10.9805 8.87012 10.9805 9.89844H9.90137C9.88867 8.27344 11.1455 7.18164 12.8086 7.18164C14.4717 7.18164 15.665 8.29883 15.665 9.7334C15.665 10.7617 15.1826 11.5615 13.5576 13.2373L11.4502 15.4082V15.4844H15.8301V16.5H9.86328Z" fill="#009857"/>
</svg>
