<svg width="24" height="24" viewBox="0 0 24 24" fill="none" xmlns="http://www.w3.org/2000/svg">
<path d="M15 15.5L17.5 18L21.5 14" stroke="#8E9092" stroke-width="1.5" stroke-linecap="round" stroke-linejoin="round"/>
<path d="M5 4C4.44772 4 4 4.44772 4 5V20C4 20.5523 4.44772 21 5 21H19C19.5523 21 20 20.5523 20 20V18.3284L18.9142 19.4142C18.1332 20.1953 16.8668 20.1953 16.0858 19.4142L13.5858 16.9142C12.8047 16.1332 12.8047 14.8668 13.5858 14.0858C14.3668 13.3047 15.6332 13.3047 16.4142 14.0858L17.5 15.1716L20 12.6716V5C20 4.44772 19.5523 4 19 4H5Z" fill="#CBCCCD"/>
<path d="M9 9H15M9 11.5H15" stroke="#8E9092" stroke-width="1.5" stroke-linecap="round"/>
</svg>
